<?xml version="1.0" encoding="utf-8"?>
<!-- Generator: Adobe Illustrator 19.1.0, SVG Export Plug-In . SVG Version: 6.00 Build 0)  -->
<svg version="1.1" id="Calque_1" xmlns="http://www.w3.org/2000/svg" xmlns:xlink="http://www.w3.org/1999/xlink" x="0px" y="0px"
	 viewBox="0 0 74.6 74.6" style="enable-background:new 0 0 74.6 74.6;" xml:space="preserve">
<style type="text/css">
	.st0{fill:#6D9DBD;}
	.st1{fill:#6DA3C3;}
	.st2{fill:#000;}
	.st3{fill:none;}
	.st4{fill:none;stroke:#F2A73B;stroke-width:3;stroke-miterlimit:10;}
	.st5{fill:#6DA1C1;}
	.st6{fill:#F6AB3B;}
	.st7{fill:none;stroke:#F6AB3B;stroke-width:3;stroke-miterlimit:10;}
	.st8{fill:#F8AD3B;}
	.st9{fill:#C6C6C6;}
	.st10{fill:#F4901E;}
	.st11{fill:none;stroke:#F8AD3B;stroke-width:3;stroke-miterlimit:10;}
	.st12{fill:#FFFFFF;}
	.st13{fill:#FFFFFF;stroke:#C6C6C6;stroke-width:3;stroke-miterlimit:10;}
	.st14{fill:none;stroke:#C6C6C6;stroke-width:3;stroke-miterlimit:10;}
	.st15{stroke:#FCE9DB;stroke-width:2;stroke-miterlimit:10;}
	.st16{fill:#F0A53B;}
	.st17{fill:none;stroke:#F2A73B;stroke-miterlimit:10;}
</style>
<g>
	<path class="st2" d="M60.7,15.8c-2.1-0.3-4.2-0.6-6.3-0.9c0.3-1.2,0.4-2.3,0-3.2C52.5,7.9,44.4,7.3,41,7.3c-0.5,0-0.9,0.2-1.1,0.5
		c0,0.1-0.1,0.1-0.1,0.2c-8.4,12.9-15.8,26.4-22.2,40.4c0,0,0,0,0,0c-0.1,0.1-0.1,0.2-0.1,0.3c-1.7,5.5-2.6,11.3-4.3,16.8
		c-0.3,1,0.7,2.1,1.7,1.7c2.9-1,5.2-3.6,7.3-5.7c2.5-2.4,4.8-5.1,7.4-7.4c0.2-0.1,0.3-0.3,0.3-0.4c7.7-9.7,14.5-20,20.3-30.9
		c0.7-1.3,2-3.2,3-5.2c1.6,0.2,3.1,0.5,4.7,0.7c-4.3,5.3-7.7,11.1-10.1,17.6c-0.6,1.7,2.1,2.4,2.7,0.7c2.5-6.8,6.2-12.9,11.1-18.3
		C62.5,17.3,61.9,16,60.7,15.8z M21.3,58.4c-1.3,1.3-2.9,3.2-4.6,4.6c1-4.1,1.9-8.2,3-12.2c2.3,0.7,4.4,1.5,6.5,2.7
		C24.5,55.1,23,56.8,21.3,58.4z M49.7,17.7c-2,4-4.1,7.8-6.3,11.6c-4.5,7.7-9.6,15-15.1,22c-2.4-1.4-4.9-2.4-7.5-3.2
		c6.1-13.2,13.1-25.9,21-38c2.1,0,4.2,0.3,6.3,1C52,12.6,51.2,14.6,49.7,17.7z"/>
</g>
</svg>
