<?xml version="1.0" encoding="utf-8"?>
<!-- Generator: Adobe Illustrator 19.1.0, SVG Export Plug-In . SVG Version: 6.00 Build 0)  -->
<svg version="1.1" id="Calque_1" xmlns="http://www.w3.org/2000/svg" xmlns:xlink="http://www.w3.org/1999/xlink" x="0px" y="0px"
	 viewBox="0 0 74.6 74.6" style="enable-background:new 0 0 74.6 74.6;" xml:space="preserve">
<style type="text/css">
	.st0{fill:#6D9DBD;}
	.st1{fill:#6DA3C3;}
	.st2{fill:#F2A73B;}
	.st3{fill:none;}
	.st4{fill:none;stroke:#F2A73B;stroke-width:3;stroke-miterlimit:10;}
	.st5{fill:#6DA1C1;}
	.st6{fill:#F6AB3B;}
	.st7{fill:none;stroke:#F6AB3B;stroke-width:3;stroke-miterlimit:10;}
	.st8{fill:#F8AD3B;}
	.st9{fill:#C6C6C6;}
	.st10{fill:#F4901E;}
	.st11{fill:none;stroke:#F8AD3B;stroke-width:3;stroke-miterlimit:10;}
	.st12{fill:#FFFFFF;}
	.st13{fill:#FFFFFF;stroke:#C6C6C6;stroke-width:3;stroke-miterlimit:10;}
	.st14{fill:none;stroke:#C6C6C6;stroke-width:3;stroke-miterlimit:10;}
	.st15{stroke:#FCE9DB;stroke-width:2;stroke-miterlimit:10;}
	.st16{fill:#000;}
	.st17{fill:none;stroke:#F2A73B;stroke-miterlimit:10;}
</style>
<g>
	<path class="st16" d="M66.7,35.9c-0.2-4.3-0.5-8.6-0.9-12.8c-0.3-3.6-0.1-8.1-1.4-11.5C62.1,5.5,52,8.2,47.2,8.3
		C36.8,8.6,26.5,8.9,16.1,9.2c0,0-0.1,0-0.1,0c-4.4-0.3-8.3,0.8-8.7,5.7C6.5,23.5,7.8,32.7,8,41.3c0.1,4.5,0.3,9,0.4,13.6
		c0.1,2.8-0.3,6.5,1.2,9c1.1,1.8,2.9,2.5,4.9,2.8c4.5,0.8,9.5,0.5,14.1,0.7c8.9,0.2,17.9,0.4,26.8-0.1c5.1-0.3,9.5-1.8,11.1-7.1
		C68.6,52.7,67.1,43.5,66.7,35.9z M57.3,64c-4.2,0.7-8.7,0.8-13.1,0.7c0-0.1,0-0.2,0-0.4c-0.4-7.8-0.9-15.7-1.1-23.6
		c4.2-0.5,8.4-1,12.6-0.5c1.9,0.3,2.7-2.7,0.8-2.9c-4.6-0.6-9-0.1-13.5,0.4c0,0,0,0,0-0.1C42.9,33.3,42.1,25,46.9,23
		c2.7-1.1,7.1-0.5,9.5,0.9c1.7,1,3.2-1.6,1.5-2.6c-4.9-3-14.3-2.9-16.7,3.3c-1.6,4.1-1.6,9-1.3,13.6c-2.4,0.2-4.9,0.3-7.3,0.1
		c-1.9-0.1-1.9,2.9,0,3c2.5,0.2,5,0,7.5-0.2c0,0.8,0.1,1.6,0.1,2.4c0.3,6.9,0.7,13.9,1,20.8c0,0.1,0,0.2,0,0.3
		c-2.6-0.1-5.2-0.2-7.8-0.2c-3.9-0.1-7.7-0.2-11.6-0.3c-1.8-0.1-4.1,0.2-5.8-0.3c-5.1-1.4-4.4-3.2-4.6-7C11.2,49,11,41.3,10.8,33.6
		c-0.1-3.9-0.2-7.7-0.3-11.6c-0.1-4.2-1-9,3.6-9.6c0.1,0,0.1,0,0.2,0c8.3-0.2,16.7-0.5,25-0.7c4.3-0.1,8.7-0.3,13-0.4
		c1.7-0.1,4.5-0.7,6-0.2c3.7,1.3,3.7,3.8,4.1,7.1c0.8,7.9,1.4,15.8,1.7,23.7C64.2,48.9,66.9,62.5,57.3,64z"/>
</g>
</svg>
