<?xml version="1.0" encoding="utf-8"?>
<!-- Generator: Adobe Illustrator 19.1.0, SVG Export Plug-In . SVG Version: 6.00 Build 0)  -->
<svg version="1.1" id="Calque_1" xmlns="http://www.w3.org/2000/svg" xmlns:xlink="http://www.w3.org/1999/xlink" x="0px" y="0px"
	 viewBox="0 0 195.1 124.1" style="enable-background:new 0 0 195.1 124.1;" xml:space="preserve">
<style type="text/css">
	.st0{fill:#6D9DBD;}
	.st1{fill:#F2A73B;}
	.st2{fill:#6DA3C3;}
	.st3{fill:none;}
	.st4{fill:none;stroke:#F2A73B;stroke-width:3;stroke-miterlimit:10;}
	.st5{fill:#6DA1C1;}
	.st6{fill:#F6AB3B;}
	.st7{fill:none;stroke:#F6AB3B;stroke-width:3;stroke-miterlimit:10;}
	.st8{fill:#F8AD3B;}
	.st9{fill:#C6C6C6;}
	.st10{fill:#F4901E;}
	.st11{fill:none;stroke:#F8AD3B;stroke-width:3;stroke-miterlimit:10;}
	.st12{fill:#FFFFFF;}
	.st13{fill:#FFFFFF;stroke:#C6C6C6;stroke-width:3;stroke-miterlimit:10;}
	.st14{fill:none;stroke:#C6C6C6;stroke-width:3;stroke-miterlimit:10;}
</style>
<g>
	<g>
		<path d="M100.6,21H89.3c-0.4,0-0.7-0.1-0.9-0.3c-0.2-0.2-0.3-0.5-0.3-0.9V1.3c0-0.4,0.1-0.7,0.3-0.9C88.6,0.1,88.9,0,89.3,0h2.6
			c0.4,0,0.7,0.1,0.9,0.3c0.2,0.2,0.4,0.5,0.4,0.9v14.9h7.4c0.4,0,0.7,0.1,1,0.3c0.2,0.2,0.4,0.5,0.4,0.9v2.2c0,0.4-0.1,0.7-0.4,0.9
			C101.3,20.9,101,21,100.6,21z"/>
		<path d="M116.9,21h-11.3c-0.4,0-0.7-0.1-0.9-0.3c-0.2-0.2-0.3-0.5-0.3-0.9V1.3c0-0.4,0.1-0.7,0.3-0.9c0.2-0.2,0.5-0.3,0.9-0.3
			h11.3c0.4,0,0.7,0.1,1,0.3c0.2,0.2,0.4,0.5,0.4,0.9v2.2c0,0.4-0.1,0.7-0.4,0.9c-0.2,0.2-0.6,0.3-1,0.3h-7.4v3.1h6.9
			c0.4,0,0.7,0.1,1,0.3c0.2,0.2,0.4,0.5,0.4,0.9v1.9c0,0.4-0.1,0.7-0.4,0.9c-0.2,0.2-0.6,0.3-1,0.3h-6.9v3.8h7.4
			c0.4,0,0.7,0.1,1,0.3c0.2,0.2,0.4,0.5,0.4,0.9v2.2c0,0.4-0.1,0.7-0.4,0.9C117.6,20.9,117.3,21,116.9,21z"/>
		<path d="M144.6,8.3c0,1.1-0.1,2-0.4,2.8c-0.3,0.8-0.7,1.4-1.4,2c-0.6,0.5-1.5,0.9-2.5,1.2c-1,0.3-2.3,0.4-3.8,0.4h-3.3v5
			c0,0.4-0.1,0.7-0.4,0.9c-0.2,0.2-0.5,0.3-0.9,0.3h-2.6c-0.4,0-0.7-0.1-0.9-0.3c-0.2-0.2-0.3-0.5-0.3-0.9V1.3
			c0-0.4,0.1-0.7,0.3-0.9c0.2-0.2,0.5-0.3,0.9-0.3h7.2c2.9,0,5,0.5,6.3,1.6c1.2,1.1,1.9,2.8,1.9,5.2V8.3z M136.5,4.5h-3.3v6.1h3.3
			c1.1,0,1.9-0.2,2.3-0.6c0.5-0.4,0.7-1.1,0.7-2.2V7.5c0-1.1-0.2-1.9-0.7-2.3C138.3,4.7,137.6,4.5,136.5,4.5z"/>
		<path d="M150.8,3.9l-0.6,1.4c-0.2,0.4-0.5,0.6-1,0.6h-1c-0.3,0-0.5-0.1-0.7-0.3c-0.2-0.2-0.2-0.5-0.1-0.8l0.5-1.3h-0.1
			c-0.4,0-0.7-0.1-0.9-0.3c-0.2-0.2-0.3-0.5-0.3-1.1v-1c0-0.4,0.1-0.7,0.4-0.9c0.2-0.2,0.6-0.3,1-0.3h1.6c0.4,0,0.7,0.1,0.9,0.3
			c0.2,0.2,0.3,0.5,0.3,0.9v1.9C150.9,3.5,150.9,3.7,150.8,3.9z"/>
		<path d="M158.4,5.1h-4c-0.4,0-0.7-0.1-0.9-0.3c-0.2-0.2-0.3-0.5-0.3-0.9V1.3c0-0.4,0.1-0.7,0.3-0.9c0.2-0.2,0.5-0.3,0.9-0.3h13.1
			c0.4,0,0.7,0.1,1,0.3c0.2,0.2,0.3,0.5,0.3,0.9v2.6c0,0.4-0.1,0.7-0.3,0.9c-0.2,0.2-0.6,0.3-1,0.3h-4v14.6c0,0.4-0.1,0.7-0.3,0.9
			c-0.2,0.2-0.6,0.3-1,0.3h-2.6c-0.4,0-0.7-0.1-0.9-0.3c-0.2-0.2-0.3-0.5-0.3-0.9V5.1z"/>
		<path d="M175.2,21h-2.6c-0.4,0-0.7-0.1-0.9-0.3c-0.2-0.2-0.3-0.5-0.3-0.9V1.3c0-0.4,0.1-0.7,0.3-0.9c0.2-0.2,0.5-0.3,0.9-0.3h2.6
			c0.4,0,0.7,0.1,0.9,0.3c0.2,0.2,0.4,0.5,0.4,0.9v18.4c0,0.4-0.1,0.7-0.4,0.9C175.9,20.9,175.5,21,175.2,21z"/>
		<path d="M184.2,5.1h-4c-0.4,0-0.7-0.1-0.9-0.3c-0.2-0.2-0.3-0.5-0.3-0.9V1.3c0-0.4,0.1-0.7,0.3-0.9c0.2-0.2,0.5-0.3,0.9-0.3h13.1
			c0.4,0,0.7,0.1,1,0.3c0.2,0.2,0.3,0.5,0.3,0.9v2.6c0,0.4-0.1,0.7-0.3,0.9c-0.2,0.2-0.6,0.3-1,0.3h-4v14.6c0,0.4-0.1,0.7-0.3,0.9
			c-0.2,0.2-0.6,0.3-1,0.3h-2.6c-0.4,0-0.7-0.1-0.9-0.3c-0.2-0.2-0.3-0.5-0.3-0.9V5.1z"/>
		<path d="M106.4,124.1H92.5c-2.6,0-3.9-1.3-3.9-3.9V37.7c0-2.5,1.3-3.8,3.9-3.8h3.2c2.5,0,3.7,1.3,3.7,3.8v75.5h7
			c1.2,0,2.2,0.3,2.9,1c0.7,0.6,1,1.6,1,2.8v3.2c0,1.3-0.3,2.2-1,2.9C108.6,123.7,107.6,124.1,106.4,124.1z"/>
		<path d="M126,124.1h-3.2c-2.6,0-3.9-1.3-3.9-3.9V37.7c0-2.5,1.3-3.8,3.9-3.8h3.2c2.5,0,3.7,1.3,3.7,3.8v82.5
			C129.7,122.8,128.5,124.1,126,124.1z"/>
		<path d="M151.6,124.1h-9.2c-2.6,0-3.9-1.3-3.9-3.9V37.7c0-2.5,1.3-3.8,3.9-3.8h8.1c5,0,8.4,1.1,10.2,3.2c1.8,2.1,2.7,6.2,2.7,12.1
			v17.7c0,2.8-0.5,4.8-1.6,6.1c-1.1,1.3-3.1,2.1-6,2.4c3.3,0.4,5.6,1.4,6.8,3.1c1.3,1.7,1.9,4.4,1.9,8.1v22.1c0,6-0.9,10-2.7,12.2
			C160.1,123,156.6,124.1,151.6,124.1z M150.5,44.7h-1.1v26.6h1.1c0.8,0,1.4-0.5,1.7-1.4c0.3-0.9,0.5-2.9,0.5-5.8V52
			c0-2.9-0.2-4.9-0.5-5.8S151.3,44.7,150.5,44.7z M151.6,82.2h-2.2v31h2.2c0.8,0,1.4-0.5,1.7-1.4c0.3-0.9,0.4-2.9,0.4-5.8V89.5
			c0-3-0.1-4.9-0.4-5.9C153,82.6,152.4,82.2,151.6,82.2z"/>
		<path d="M191.2,124.1h-13.9c-2.6,0-3.9-1.3-3.9-3.9V37.7c0-2.5,1.3-3.8,3.9-3.8h13.9c1.2,0,2.2,0.3,2.9,1c0.7,0.6,1,1.6,1,2.8v3.2
			c0,1.2-0.3,2.2-1,2.8c-0.7,0.6-1.6,1-2.9,1h-7v27.5h7c1.2,0,2.2,0.3,2.9,1c0.7,0.7,1,1.6,1,2.9v3.1c0,2.6-1.3,3.8-3.9,3.8h-7v30.2
			h7c1.2,0,2.2,0.3,2.9,1c0.7,0.6,1,1.6,1,2.8v3.2c0,1.3-0.3,2.2-1,2.9C193.3,123.7,192.4,124.1,191.2,124.1z M191.4,27.3l-2.1,2.8
			c-0.8,0.9-1.7,1.3-2.8,1.3h-3c-1.3,0-2.1-0.3-2.4-0.8c-0.4-0.5-0.4-1.4-0.2-2.7l0.3-1.4c0.2-1.3,1-2,2.4-2h6.5
			c0.9,0,1.4,0.3,1.6,0.9C192.1,26,191.9,26.6,191.4,27.3z"/>
	</g>
	<g>
		<path d="M70.4,27.1c0.4-13.2-10-23-21.9-26.7C47.3,0,46.8,1.9,48,2.3C58,5.3,66.9,12.8,68.3,23.6c1.4,10.9-5.7,19.1-15.5,22.6
			C36.3,52.1,3.5,51.7,2,28.2C1.2,16.6,9.7,7.1,19.9,3c1.1-0.5,0.6-2.3-0.5-1.9C9.9,5,1.7,12.9,0.2,23.5c-1.5,11.4,5,20.7,15.4,24.8
			c2.1,0.8,4.3,1.5,6.5,2c-1.2,2.9-2.5,5.7-3.8,8.6c-0.7,1.5-1.4,3.1-2,4.6c-0.6,1.4-1.1,3.4-2,4.6c-2.6,3.2-10.1-1.6-10.8,3.8
			c-0.2,1.3-0.5,4.2,0.6,5.2c1.2,1.1,4.1,0.5,5.5,0.5c1.4,0,3.8,0.6,4.8-0.8c1.1-1.4,0.7-5,0.9-6.8c1.6-1.7,2.3-4.8,3.2-6.7
			c1.4-3.1,2.7-6.2,4.1-9.3c-2.1,14.4-4.3,28.7-6.4,43.1c-0.1,0.5,0.1,1.1,0.7,1.2c3.2,0.6,6.3,1.1,9.5,1.5c0.1,0.4,0.4,0.6,0.9,0.6
			c-0.9,0-1.3,10.5-1.4,14.2c-3.1-0.7-6.1-0.9-9.3-0.8c-0.5,0-1,0.4-1,1c0,1.7-0.7,5.1,0.2,6.6c1,1.5,3.1,0.8,4.5,0.6
			c1.7-0.2,5.3,0.2,6.7-1.1c1.2-1.2,1-4.3,1.1-5.8c0-0.3-0.1-0.6-0.3-0.7c0.3-3.9,0.5-7.9,0.8-11.8c0-0.6,0.2-1.6,0.1-2.5
			c4.1,0.4,8.2,0.5,12.2,0.4c0.9,0,1.7-0.1,2.6-0.1c0,2.7,0.1,8.4,0.2,11.7c0,0.3,0,0.8,0,1.3c-0.1,0-0.2,0-0.2,0
			c-1.2-0.1-1.2,1.9,0,1.9c0.1,0,0.1,0,0.2,0c0,2,0.1,4.3,1.1,5.2c0.8,0.7,2.5,0.4,3.4,0.4c1.3,0,3.3,0.5,4.6,0.1
			c2.2-0.6,2.3-4.8,2.8-6.6c0.2-0.6-0.3-1.3-0.9-1.2c-3,0.3-5.9,0.4-8.8,0.3c-0.2-4.4-0.3-8.8-0.3-13.2c2.4-0.2,4.8-0.4,7.2-0.7
			c1.9-0.3,5.4-0.1,6.4-2.2c0.5-1.1,0.1-2.5,0-3.6c-0.3-2.1-0.6-4.2-1-6.3c-0.6-4.2-1.3-8.4-2-12.5c-0.9-5.9-1.9-11.9-2.9-17.8
			c0.5,1.7,1.1,3.3,1.7,5c0.7,1.8,1.4,3.7,2.1,5.5c0.4,0.9,0.7,2.3,1.3,3.3c0,0.1-0.1,0.2-0.1,0.3c0,1.6-0.3,5.5,1.1,6.8
			c1.3,1.1,5.1,0.2,6.5-0.2c1.7-0.4,1.8-1.4,1.8-3.1c0-1.4,0.6-3.8-0.7-4.8c-1.6-1.3-4.2,0.2-5.9,0.1c-1.1-0.1-0.4,0.3-1.2-0.5
			c-0.7-0.8-1.1-2.6-1.5-3.6c-0.6-1.5-1.2-2.9-1.7-4.4c-1.2-3.3-2.3-6.7-3.3-10c-0.3-1.1-0.6-2.2-1.3-3C62,45.2,70.1,38,70.4,27.1z
			 M12.1,75.6c-0.6,0.2-6.1,0.4-6.5,0c-0.1-0.1-0.1-3.1-0.1-3.3C6,71,7.6,71,8.7,71c1.4,0,3.2,0.3,4.7,0.1c-0.1,0.7-0.1,1.5-0.2,2.2
			C13,74.5,13.1,75.2,12.1,75.6z M24.1,119.6c-1.4,0.4-3,0.3-4.4,0.5c-1.8,0.2-2,0.7-2.2-1c-0.2-1.1-0.1-2.2,0-3.3
			c2.9,0,5.8,0.3,8.7,1C26.1,118,25.9,119.1,24.1,119.6z M53.5,115.1c-0.2,0.7-0.3,1.4-0.6,2c-0.7,1.6-0.9,1.7-2.4,1.9
			c-0.6,0.1-2.6,0.2-3.2-0.1c-1.4-0.7-1.3-2.2-1.3-3.5C48.5,115.4,51,115.3,53.5,115.1z M66,71.4c0.2,0.2,0.1,2.4,0,2.6
			c-0.4,1.7-1.2,1.7-2.5,2c-0.6,0.1-1.3,0.2-1.9,0.2c-0.7,0.3-1,0-0.8-0.9c-0.4-0.9-0.4-2.2-0.3-3.3C62.2,72.1,64.6,70.3,66,71.4z
			 M56.8,91c0.3,2.2,0.9,4.9-1.3,6.1c-1.5,0.8-4.1,0.6-5.8,0.8c-1.4,0.2-2.8,0.3-4.3,0.4c-0.4-0.5-1.3-0.5-1.6,0.1
			c-1.5,0.1-3.1,0.1-4.6,0.1c-7,0.1-14-0.6-21-1.9c2.3-15.3,4.6-30.5,6.8-45.8c8.2,1.3,17,0.5,24.8-1.6c0.1,0.1,0.2,0.2,0.3,0.3
			C52.5,63.3,54.7,77.1,56.8,91z"/>
		<path d="M24.3,30.4C24.3,30.4,24.3,30.4,24.3,30.4c0.1,0.3,0.1,0.5,0.3,0.7c0.2,0.3,0.5,0.5,0.8,0.5c0.5,0.4,1.2,0.3,1.7-0.2
			c0.1,0,0.1,0,0.2-0.1c0.8-0.4,1.1-1.6,0.7-2.4c-0.1-0.2-0.3-0.4-0.5-0.5c0,0-0.1,0-0.1,0c-0.3-0.5-0.9-0.8-1.5-0.8
			c-0.9,0-1.6,0.8-1.7,1.7C23.9,29.7,24,30.1,24.3,30.4z"/>
		<path d="M39.1,29.5c0.2,0.2,0.4,0.4,0.6,0.5c0.2,0.6,0.7,1.1,1.3,1.2c1.7,0.5,3-0.9,3.1-2.5c0-0.4,0-0.8-0.2-1.1
			c-0.4-1.4-1.9-2.2-3.3-1.7c0,0,0,0-0.1,0c-0.5,0-0.9,0.1-1.3,0.5c-0.8,0.7-0.8,1.6-0.4,2.3C38.9,29,39,29.2,39.1,29.5z"/>
		<path d="M45.8,83.8C45.8,83.8,45.8,83.8,45.8,83.8c-1.5-1.5-3.1-2.9-4.8-4.2c-1-0.8-2.4-2.3-3.9-2.4c-0.8,0-1.3,0.4-1.8,0.9
			c-1.9,1.6-3.4,3.2-5.6,4.4c0,0,0,0,0,0c-1-0.1-1.7,1.3-0.7,1.8c2,1,3.9,2.2,5.4,3.8c0.7,0.7,1.5,2.2,2.6,2.4
			c1.1,0.2,2.1-0.6,2.9-1.1c2.2-1.2,4.3-2.6,6.4-3.8C47.4,85,46.7,83.6,45.8,83.8z M36.5,87.4c-1.6-1.5-3.1-2.8-4.8-3.9
			c0.7-0.5,1.5-1,2.2-1.5c0.7-0.6,2-2.3,2.8-2.6c1.2-0.4,3,1.6,3.9,2.3c1.2,1,2.3,2,3.5,3.1c-1.1,0.7-2.2,1.3-3.3,2
			C38.9,87.8,38.2,88.9,36.5,87.4z"/>
	</g>
</g>
</svg>
