<?xml version="1.0" encoding="utf-8"?>
<!-- Generator: Adobe Illustrator 19.1.0, SVG Export Plug-In . SVG Version: 6.00 Build 0)  -->
<svg version="1.1" id="Calque_1" xmlns="http://www.w3.org/2000/svg" xmlns:xlink="http://www.w3.org/1999/xlink" x="0px" y="0px"
	 viewBox="0 0 74.6 74.6" style="enable-background:new 0 0 74.6 74.6;" xml:space="preserve">
<style type="text/css">
	.st0{fill:#6D9DBD;}
	.st1{fill:#6DA3C3;}
	.st2{fill:#000000;}
	.st3{fill:none;}
	.st4{fill:none;stroke:#F2A73B;stroke-width:3;stroke-miterlimit:10;}
	.st5{fill:#6DA1C1;}
	.st6{fill:#F6AB3B;}
	.st7{fill:none;stroke:#F6AB3B;stroke-width:3;stroke-miterlimit:10;}
	.st8{fill:#F8AD3B;}
	.st9{fill:#C6C6C6;}
	.st10{fill:#F4901E;}
	.st11{fill:none;stroke:#F8AD3B;stroke-width:3;stroke-miterlimit:10;}
	.st12{fill:#FFFFFF;}
	.st13{fill:#FFFFFF;stroke:#C6C6C6;stroke-width:3;stroke-miterlimit:10;}
	.st14{fill:none;stroke:#C6C6C6;stroke-width:3;stroke-miterlimit:10;}
	.st15{stroke:#FCE9DB;stroke-width:2;stroke-miterlimit:10;}
	.st16{fill:#F0A53B;}
	.st17{fill:none;stroke:#F2A73B;stroke-miterlimit:10;}
</style>
<g>
	<path class="st2" d="M68.8,56.3C65.6,40.6,63.2,24.9,61.6,9c0-0.3-0.1-0.6-0.2-0.8c0,0,0,0,0-0.1c0,0,0,0,0,0
		c-0.3-0.5-0.9-0.8-1.6-0.7c-16.9,4-34.1,6.3-51.5,6.7c-1,0-1.7,0.9-1.4,1.9c4.2,16.3,5.7,33.1,4.5,49.9c-0.1,0.8,0.5,1.3,1.1,1.4
		c0.2,0.1,0.5,0.1,0.8,0c18.1-3.9,36.3-6.6,54.6-9.2C68.6,58,69,57,68.8,56.3z M38.2,35.8c-5.4-4.2-10.8-8.3-16.3-12.2
		c-2.3-1.6-7.2-6.2-10.9-6.7c14.9-0.5,29.7-2.4,44.3-5.6C48.4,18.7,43.1,26.9,38.2,35.8z M10.8,19.9c1.1,0.3,3.3,2,3.9,2.4
		c2.6,1.7,5.2,3.5,7.7,5.3c5.2,3.7,10.3,7.6,15.3,11.5c0.7,0.6,1.8,0.6,2.3-0.3c5.3-10,11-18.9,18.9-26.9
		c1.6,14.6,3.8,29.1,6.7,43.5c-17.2,2.4-34.3,5-51.3,8.6C15.2,49.2,14,34.4,10.8,19.9z"/>
</g>
</svg>
